<svg width="300" height="300" viewBox="0 0 300 300" fill="none" xmlns="http://www.w3.org/2000/svg" xmlns:xlink="http://www.w3.org/1999/xlink">
<circle cx="150" cy="150" r="150" fill="#8066B0"/>
<rect x="54" y="69" width="180" height="186.025" fill="url(#pattern0)"/>
<path d="M144.374 256.324V265H142.952V259.396C142.952 259.172 142.964 258.93 142.988 258.67L140.366 263.596C140.242 263.832 140.052 263.95 139.796 263.95H139.568C139.312 263.95 139.122 263.832 138.998 263.596L136.346 258.652C136.358 258.784 136.368 258.914 136.376 259.042C136.384 259.17 136.388 259.288 136.388 259.396V265H134.966V256.324H136.184C136.256 256.324 136.318 256.326 136.37 256.33C136.422 256.334 136.468 256.344 136.508 256.36C136.552 256.376 136.59 256.402 136.622 256.438C136.658 256.474 136.692 256.522 136.724 256.582L139.322 261.4C139.39 261.528 139.452 261.66 139.508 261.796C139.568 261.932 139.626 262.072 139.682 262.216C139.738 262.068 139.796 261.926 139.856 261.79C139.916 261.65 139.98 261.516 140.048 261.388L142.61 256.582C142.642 256.522 142.676 256.474 142.712 256.438C142.748 256.402 142.786 256.376 142.826 256.36C142.87 256.344 142.918 256.334 142.97 256.33C143.022 256.326 143.084 256.324 143.156 256.324H144.374ZM147.93 257.608V260.014H150.966V261.256H147.93V263.71H151.782V265H146.31V256.324H151.782V257.608H147.93ZM154.832 257.608V260.014H157.868V261.256H154.832V263.71H158.684V265H153.212V256.324H158.684V257.608H154.832ZM166.174 257.65H163.558V265H161.944V257.65H159.328V256.324H166.174V257.65Z" fill="white"/>
<rect x="112" y="32" width="77" height="22" rx="11" fill="#8972B6"/>
<path d="M130.155 43.405C130.402 43.405 130.617 43.375 130.8 43.315C130.983 43.2517 131.135 43.1633 131.255 43.05C131.378 42.9333 131.47 42.7933 131.53 42.63C131.59 42.4633 131.62 42.2783 131.62 42.075C131.62 41.8817 131.59 41.7067 131.53 41.55C131.47 41.3933 131.38 41.26 131.26 41.15C131.14 41.04 130.988 40.9567 130.805 40.9C130.622 40.84 130.405 40.81 130.155 40.81H129.15V43.405H130.155ZM130.155 39.77C130.638 39.77 131.057 39.8267 131.41 39.94C131.763 40.0533 132.055 40.2117 132.285 40.415C132.515 40.6183 132.685 40.8617 132.795 41.145C132.908 41.4283 132.965 41.7383 132.965 42.075C132.965 42.425 132.907 42.7467 132.79 43.04C132.673 43.33 132.498 43.58 132.265 43.79C132.032 44 131.738 44.1633 131.385 44.28C131.035 44.3967 130.625 44.455 130.155 44.455H129.15V47H127.805V39.77H130.155ZM140.891 43.385C140.891 43.915 140.803 44.4067 140.626 44.86C140.453 45.31 140.206 45.7 139.886 46.03C139.566 46.36 139.181 46.6183 138.731 46.805C138.281 46.9883 137.781 47.08 137.231 47.08C136.685 47.08 136.186 46.9883 135.736 46.805C135.286 46.6183 134.9 46.36 134.576 46.03C134.256 45.7 134.008 45.31 133.831 44.86C133.655 44.4067 133.566 43.915 133.566 43.385C133.566 42.855 133.655 42.365 133.831 41.915C134.008 41.4617 134.256 41.07 134.576 40.74C134.9 40.41 135.286 40.1533 135.736 39.97C136.186 39.7833 136.685 39.69 137.231 39.69C137.598 39.69 137.943 39.7333 138.266 39.82C138.59 39.9033 138.886 40.0233 139.156 40.18C139.426 40.3333 139.668 40.5217 139.881 40.745C140.098 40.965 140.281 41.2117 140.431 41.485C140.581 41.7583 140.695 42.055 140.771 42.375C140.851 42.695 140.891 43.0317 140.891 43.385ZM139.516 43.385C139.516 42.9883 139.463 42.6333 139.356 42.32C139.25 42.0033 139.098 41.735 138.901 41.515C138.705 41.295 138.465 41.1267 138.181 41.01C137.901 40.8933 137.585 40.835 137.231 40.835C136.878 40.835 136.56 40.8933 136.276 41.01C135.996 41.1267 135.756 41.295 135.556 41.515C135.36 41.735 135.208 42.0033 135.101 42.32C134.995 42.6333 134.941 42.9883 134.941 43.385C134.941 43.7817 134.995 44.1383 135.101 44.455C135.208 44.7683 135.36 45.035 135.556 45.255C135.756 45.4717 135.996 45.6383 136.276 45.755C136.56 45.8717 136.878 45.93 137.231 45.93C137.585 45.93 137.901 45.8717 138.181 45.755C138.465 45.6383 138.705 45.4717 138.901 45.255C139.098 45.035 139.25 44.7683 139.356 44.455C139.463 44.1383 139.516 43.7817 139.516 43.385ZM144.423 43.405C144.669 43.405 144.884 43.375 145.068 43.315C145.251 43.2517 145.403 43.1633 145.523 43.05C145.646 42.9333 145.738 42.7933 145.798 42.63C145.858 42.4633 145.888 42.2783 145.888 42.075C145.888 41.8817 145.858 41.7067 145.798 41.55C145.738 41.3933 145.648 41.26 145.528 41.15C145.408 41.04 145.256 40.9567 145.073 40.9C144.889 40.84 144.673 40.81 144.423 40.81H143.418V43.405H144.423ZM144.423 39.77C144.906 39.77 145.324 39.8267 145.678 39.94C146.031 40.0533 146.323 40.2117 146.553 40.415C146.783 40.6183 146.953 40.8617 147.063 41.145C147.176 41.4283 147.233 41.7383 147.233 42.075C147.233 42.425 147.174 42.7467 147.058 43.04C146.941 43.33 146.766 43.58 146.533 43.79C146.299 44 146.006 44.1633 145.653 44.28C145.303 44.3967 144.893 44.455 144.423 44.455H143.418V47H142.073V39.77H144.423ZM151.174 45.915C151.434 45.915 151.666 45.8717 151.869 45.785C152.076 45.6983 152.249 45.5767 152.389 45.42C152.529 45.2633 152.636 45.0733 152.709 44.85C152.786 44.6267 152.824 44.3767 152.824 44.1V39.77H154.169V44.1C154.169 44.53 154.099 44.9283 153.959 45.295C153.822 45.6583 153.624 45.9733 153.364 46.24C153.107 46.5033 152.794 46.71 152.424 46.86C152.054 47.0067 151.637 47.08 151.174 47.08C150.707 47.08 150.289 47.0067 149.919 46.86C149.549 46.71 149.234 46.5033 148.974 46.24C148.717 45.9733 148.519 45.6583 148.379 45.295C148.242 44.9283 148.174 44.53 148.174 44.1V39.77H149.519V44.095C149.519 44.3717 149.556 44.6217 149.629 44.845C149.706 45.0683 149.814 45.26 149.954 45.42C150.097 45.5767 150.271 45.6983 150.474 45.785C150.681 45.8717 150.914 45.915 151.174 45.915ZM159.921 45.89V47H155.686V39.77H157.031V45.89H159.921ZM164.701 44.27L163.821 41.865C163.778 41.7583 163.733 41.6317 163.686 41.485C163.64 41.3383 163.593 41.18 163.546 41.01C163.503 41.18 163.458 41.34 163.411 41.49C163.365 41.6367 163.32 41.765 163.276 41.875L162.401 44.27H164.701ZM167.076 47H166.036C165.92 47 165.825 46.9717 165.751 46.915C165.678 46.855 165.623 46.7817 165.586 46.695L165.046 45.22H162.051L161.511 46.695C161.485 46.7717 161.433 46.8417 161.356 46.905C161.28 46.9683 161.185 47 161.071 47H160.021L162.866 39.77H164.236L167.076 47ZM170.01 43.21C170.263 43.21 170.483 43.1783 170.67 43.115C170.86 43.0517 171.015 42.965 171.135 42.855C171.258 42.7417 171.35 42.6083 171.41 42.455C171.47 42.3017 171.5 42.1333 171.5 41.95C171.5 41.5833 171.378 41.3017 171.135 41.105C170.895 40.9083 170.526 40.81 170.03 40.81H169.17V43.21H170.01ZM173.47 47H172.255C172.025 47 171.858 46.91 171.755 46.73L170.235 44.415C170.178 44.3283 170.115 44.2667 170.045 44.23C169.978 44.1933 169.878 44.175 169.745 44.175H169.17V47H167.825V39.77H170.03C170.52 39.77 170.94 39.8217 171.29 39.925C171.643 40.025 171.931 40.1667 172.155 40.35C172.381 40.5333 172.548 40.7533 172.655 41.01C172.761 41.2633 172.815 41.5433 172.815 41.85C172.815 42.0933 172.778 42.3233 172.705 42.54C172.635 42.7567 172.531 42.9533 172.395 43.13C172.261 43.3067 172.095 43.4617 171.895 43.595C171.698 43.7283 171.473 43.8333 171.22 43.91C171.306 43.96 171.386 44.02 171.46 44.09C171.533 44.1567 171.6 44.2367 171.66 44.33L173.47 47Z" fill="white"/>
</svg>
